<?xml version="1.0" standalone="no"?>
<!DOCTYPE svg PUBLIC "-//W3C//DTD SVG 20010904//EN"
 "http://www.w3.org/TR/2001/REC-SVG-20010904/DTD/svg10.dtd">
<svg version="1.0" xmlns="http://www.w3.org/2000/svg"
 width="512.000000pt" height="512.000000pt" viewBox="0 0 512.000000 512.000000"
 preserveAspectRatio="xMidYMid meet">
<metadata>
Created by potrace 1.11, written by Peter Selinger 2001-2013
</metadata>
<g transform="translate(0.000000,512.000000) scale(0.100000,-0.100000)"
fill="#000000" stroke="none">
<path d="M2265 5108 c-44 -5 -134 -20 -200 -33 -514 -104 -948 -336 -1315
-705 -370 -371 -602 -803 -705 -1315 -34 -172 -45 -289 -45 -495 0 -206 11
-323 45 -495 103 -512 335 -946 705 -1315 356 -357 770 -584 1263 -694 338
-76 753 -76 1097 0 261 58 590 191 802 325 164 104 314 225 458 369 357 356
584 770 694 1263 56 251 73 597 41 857 -95 768 -529 1449 -1191 1868 -304 192
-708 331 -1076 371 -115 13 -459 12 -573 -1z m690 -902 c173 -37 291 -78 450
-156 311 -154 568 -407 724 -715 137 -272 201 -616 172 -925 -39 -400 -186
-725 -448 -987 l-82 -83 32 -23 c126 -93 243 -139 367 -142 l85 -2 3 -148 3
-148 -103 6 c-216 13 -391 84 -559 228 l-56 48 -29 -20 c-61 -42 -245 -129
-344 -164 -57 -19 -160 -48 -229 -62 -117 -25 -144 -27 -371 -27 -229 -1 -253
1 -371 26 -547 118 -982 448 -1219 925 -230 464 -222 1033 21 1503 226 437
648 751 1155 860 163 34 219 39 454 35 195 -3 241 -7 345 -29z"/>
<path d="M2420 3939 c-634 -61 -1129 -503 -1251 -1119 -26 -133 -35 -315 -20
-436 12 -94 35 -212 44 -220 2 -2 28 4 58 15 80 27 224 59 341 76 136 19 434
19 585 0 436 -56 820 -243 1257 -614 l100 -84 77 81 c175 185 296 418 346 670
24 122 24 394 -1 517 -56 282 -178 513 -374 709 -238 237 -534 372 -889 406
-120 11 -149 11 -273 -1z"/>
<path d="M1715 1973 c-105 -8 -202 -27 -289 -54 -53 -16 -96 -32 -96 -35 0
-12 36 -73 72 -122 175 -237 424 -415 717 -512 160 -54 277 -72 451 -73 251
-1 449 48 648 159 l64 36 -34 29 c-425 370 -784 533 -1248 569 -130 10 -199
10 -285 3z"/>
</g>
</svg>
