<?xml version="1.0" encoding="UTF-8" standalone="no"?>
<!DOCTYPE svg PUBLIC "-//W3C//DTD SVG 20010904//EN" "http://www.w3.org/TR/2001/REC-SVG-20010904/DTD/svg10.dtd">

<svg xmlns="http://www.w3.org/2000/svg" width="1.70667in" height="1.70667in" viewBox="0 0 512 512">
  <path id="Selection" fill="#6df577" d="M 240.00,0.21
           C 240.00,0.21 264.00,0.21 264.00,0.21
             264.00,0.21 276.00,0.91 276.00,0.91
             300.87,2.65 324.65,8.22 348.00,16.95
             373.01,26.30 398.45,41.27 419.00,58.25
             439.59,75.27 457.63,95.40 471.95,118.00
             534.76,217.17 522.88,344.95 443.09,431.00
             423.70,451.91 400.58,469.96 375.00,482.75
             330.78,504.88 295.27,512.57 246.00,512.00
             246.00,512.00 236.00,511.09 236.00,511.09
             215.63,509.66 195.41,505.80 176.00,499.33
             139.83,487.29 108.97,469.02 81.00,443.09
             81.00,443.09 74.17,436.91 74.17,436.91
             31.81,393.29 5.16,336.79 0.91,276.00
             0.91,276.00 0.00,264.00 0.00,264.00
             0.00,264.00 0.00,248.00 0.00,248.00
             0.00,248.00 0.91,236.00 0.91,236.00
             2.95,206.83 10.08,177.63 22.31,151.00
             51.84,86.67 103.14,38.48 170.00,14.69
             186.39,8.86 203.75,4.61 221.00,2.28
             221.00,2.28 240.00,0.21 240.00,0.21 Z" />
</svg>
